Coordinates
version=1
nRows=10
nColumns=40
inDegrees=yes

Units are S.I. units (second, meters, Newtons, ...)
Angles are in degrees.

endheader
time	pelvis_tilt	pelvis_list	pelvis_rotation	pelvis_tx	pelvis_ty	pelvis_tz	hip_flexion_r	hip_adduction_r	hip_rotation_r	knee_angle_r	knee_angle_r_beta	ankle_angle_r	subtalar_angle_r	mtp_angle_r	hip_flexion_l	hip_adduction_l	hip_rotation_l	knee_angle_l	knee_angle_l_beta	ankle_angle_l	subtalar_angle_l	mtp_angle_l	lumbar_extension	lumbar_bending	lumbar_rotation	arm_flex_r	arm_add_r	arm_rot_r	elbow_flex_r	pro_sup_r	wrist_flex_r	wrist_dev_r	arm_flex_l	arm_add_l	arm_rot_l	elbow_flex_l	pro_sup_l	wrist_flex_l	wrist_dev_l
     43.47828571	     -5.00472868	     -4.95442669	     -3.03062367	      0.80921730	      0.93150227	      0.43589612	     31.04784351	     -3.74553202	    -11.15204339	     28.05858104	     28.05858104	      5.68156948	     -5.69322980	      3.38154021	     12.86861555	     -6.31248107	    -12.89113130	     20.55760675	     20.55760675	     15.97127776	     -1.84333519	     -4.89929387	    -10.31323960	      0.46596890	     -1.41301342	    -11.52441472	    -15.73775509	      0.81456795	     32.50204357	     45.71256359	      0.00000000	      0.00000000	     10.91682803	    -15.19527619	    -10.08355421	     36.71979741	     46.01491750	      0.00000000	      0.00000000
     43.49157143	     -4.91175158	     -4.90540741	     -3.16002200	      0.80814818	      0.93149345	      0.43638850	     30.85076706	     -3.56187786	    -11.37647648	     25.32844056	     25.32844056	      5.20550950	     -3.37049987	      3.94597890	     12.14970053	     -6.25614747	    -13.15582256	     20.19811136	     20.19811136	     16.19411393	     -1.62892907	     -5.13066431	    -10.43932997	      0.31543193	     -1.37830468	    -12.08476122	    -15.88677281	      0.33275520	     31.45008219	     45.78772857	      0.00000000	      0.00000000	     11.27896606	    -15.22760031	    -10.11343129	     37.00569504	     46.03046544	      0.00000000	      0.00000000
     43.50485714	     -4.87852822	     -4.84669041	     -3.29005461	      0.80709498	      0.93139195	      0.43701128	     30.76534399	     -3.38478493	    -11.63715525	     22.95015179	     22.95015179	      4.72335559	     -1.16232219	      4.63955125	     11.45518656	     -6.18099165	    -13.39411963	     19.75883054	     19.75883054	     16.36434886	     -1.39187023	     -5.39456194	    -10.49713514	      0.15460346	     -1.37053953	    -12.50163510	    -15.98732565	     -0.23384798	     30.46307847	     45.86821880	      0.00000000	      0.00000000	     11.56906141	    -15.22337692	    -10.13606872	     37.27409239	     46.04447939	      0.00000000	      0.00000000
     43.51814286	     -5.01105757	     -4.69173906	     -3.42241471	      0.80598633	      0.93097374	      0.43777021	     30.96287510	     -3.23924141	    -11.57273236	     21.00756578	     21.00756578	      4.20587354	      0.36059396	      5.24892045	     10.99316923	     -6.02042631	    -13.60918210	     19.40014203	     19.40014203	     16.54113982	     -1.23664532	     -5.55421511	    -10.34978454	     -0.10672315	     -1.45528686	    -12.90385212	    -16.12558933	     -0.50793087	     29.99511046	     45.90523030	      0.00000000	      0.00000000	     11.75921974	    -15.26993924	    -10.15735674	     37.47029321	     46.05313014	      0.00000000	      0.00000000
     43.53142857	     -4.85636035	     -4.61987761	     -3.49102108	      0.80525457	      0.93109455	      0.43843048	     30.87709432	     -3.21546167	    -12.11560743	     19.63483413	     19.63483413	      4.76897276	      2.81023247	      8.04486513	      9.95222008	     -5.82661931	    -13.67046076	     18.49255705	     18.49255705	     16.05881847	     -1.37307600	     -7.09082081	    -10.53579455	     -0.24552051	     -1.43464158	    -12.41434824	    -15.59517871	     -5.18284253	     27.30591112	     46.37510038	      0.00000000	      0.00000000	     11.94527413	    -15.19068133	    -10.29800690	     38.11727789	     46.12447717	      0.00000000	      0.00000000
     43.54471429	     -4.87103649	     -4.52302763	     -3.55799163	      0.80449475	      0.93085762	      0.43930236	     30.88596294	     -3.06083898	    -12.14200146	     18.30860125	     18.30860125	      4.39956510	      3.96498343	      8.38293264	      9.27578371	     -5.70256127	    -13.84308727	     18.00693794	     18.00693794	     16.29444112	     -1.10709514	     -7.09979151	    -10.49073515	     -0.40460682	     -1.45964385	    -12.75172969	    -15.79990816	     -5.35149413	     27.26922957	     46.38564030	      0.00000000	      0.00000000	     12.16547509	    -15.11675439	    -10.29127884	     38.30525872	     46.12980022	      0.00000000	      0.00000000
     43.55800000	     -4.70179065	     -4.40435949	     -3.58882243	      0.80401646	      0.93084991	      0.44012697	     30.71955470	     -3.03593383	    -12.41797314	     17.44727819	     17.44727819	      4.24144596	      5.30748960	      8.72415707	      8.28578815	     -5.52083281	    -14.07962795	     17.33095831	     17.33095831	     16.47481726	     -0.68302472	     -7.20998791	    -10.64659436	     -0.56670076	     -1.41682578	    -13.07891746	    -16.06667261	     -5.68539856	     27.34585972	     46.40287764	      0.00000000	      0.00000000	     12.43213804	    -15.00084369	    -10.29714870	     38.62611016	     46.13972807	      0.00000000	      0.00000000
     43.57128571	     -4.75893584	     -4.34358093	     -3.56419056	      0.80344598	      0.93012740	      0.44116455	     30.99952855	     -2.92835982	    -12.31518263	     17.30619847	     17.30619847	      4.17834148	      5.45626881	      8.77092360	      7.88450809	     -5.49185765	    -14.05986167	     17.29686318	     17.29686318	     16.83243420	     -0.69991635	     -7.34152542	    -10.51970005	     -0.66181851	     -1.59469990	    -13.15670193	    -16.16107290	     -5.71460956	     27.32924875	     46.40514847	      0.00000000	      0.00000000	     12.58478141	    -14.94721433	    -10.28009787	     38.69634035	     46.14015138	      0.00000000	      0.00000000
     43.58457143	     -4.63109696	     -4.11143806	     -3.56668895	      0.80342921	      0.93021364	      0.44201473	     30.53403714	     -2.97430168	    -12.46935760	     16.52626658	     16.52626658	      4.09650998	      6.40287445	      9.14563976	      6.65463385	     -5.12597285	    -14.40887883	     16.08438522	     16.08438522	     16.83420436	      0.09695344	     -7.38403990	    -10.54252849	     -0.88957220	     -1.53074070	    -13.31704746	    -16.49745877	     -5.99793438	     27.57072177	     46.41318461	      0.00000000	      0.00000000	     12.73235118	    -14.77778620	    -10.29174050	     39.06742046	     46.14793431	      0.00000000	      0.00000000
     43.59785714	     -4.70949366	     -4.02704293	     -3.47431218	      0.80324420	      0.92940598	      0.44306556	     30.53112189	     -2.91604566	    -12.48806542	     16.53337761	     16.53337761	      4.06148080	      6.41922058	      9.17259652	      6.26277194	     -5.07695694	    -14.39583615	     16.05385397	     16.05385397	     17.16363899	      0.08500008	     -7.51254139	    -10.31433546	     -0.94122839	     -1.62922203	    -13.31042253	    -16.57602664	     -6.02593654	     27.59782832	     46.41419076	      0.00000000	      0.00000000	     12.85156148	    -14.71091744	    -10.27566605	     39.13665541	     46.14799891	      0.00000000	      0.00000000
